# xmcd
#
# Track frame offsets: 
#        150
#        4112
#        16427
#        31614
#        48369
#        75271
#        96857
#        115139
#        136548
#        166316
#        203911
#        219006
#        243402
#        246871
#        262641
#        302291
#
# Disc length: 4265 seconds
#
# Revision: 0
# Processed by: cddbd v1.5.2PL0 Copyright (c) Steve Scherf et al.
# Submitted via: ExactAudioCopy v0.95b3
#
DISCID=ae10a710
DTITLE=David Bowie  - American Daydream 1973  FLAC
DYEAR=1900
DGENRE=
TTITLE0=Concert Intro
TTITLE1=Hang On To Yourself
TTITLE2=Ziggy Stardust
TTITLE3=Changes
TTITLE4=Moonage Daydream
TTITLE5=Panic In Detroit
TTITLE6=Five Years
TTITLE7=Watch That Man
TTITLE8=Aladdin Sane
TTITLE9=The Width Of A Circle - Part 1
TTITLE10=The Width Of A Circle - Part 2
TTITLE11=Space Oddity
TTITLE12=Time
TTITLE13=Suffragette City
TTITLE14=The Jean Genie
TTITLE15=Rock 'N' Roll Suicide
EXTD=
EXTT0=
EXTT1=
EXTT2=
EXTT3=
EXTT4=
EXTT5=
EXTT6=
EXTT7=
EXTT8=
EXTT9=
EXTT10=
EXTT11=
EXTT12=
EXTT13=
EXTT14=
EXTT15=
PLAYORDER=
